<?xml version="1.0" encoding="UTF-8"?>
<svg width="17px" height="42px" viewBox="0 0 17 42" version="1.1" xmlns="http://www.w3.org/2000/svg" xmlns:xlink="http://www.w3.org/1999/xlink">
    <title>编组 9</title>
    <g id="页面-1" stroke="none" stroke-width="1" fill="none" fill-rule="evenodd">
        <g id="毕业季单个样式备份" transform="translate(-229.000000, -143.000000)">
            <g id="编组-10" transform="translate(128.000000, 142.387546)">
                <g id="编组-9" transform="translate(0.000000, 1.000000)">
                    <path d="M117.229798,0.784730357 L117.229798,36.5005182 C113.974693,39.6022128 108.493269,41.1124537 100.829626,41.1124537 L100.829626,41.1124537 L0.499999987,41.1124537 L0.499999044,5.11421083 C27.2574491,5.20793232 48.6442625,5.25959151 64.6605953,5.26918957 L66.1463926,5.26996617 L66.1463926,5.26996617 L66.877491,5.27026204 L72.8429404,5.270262 C73.0609547,5.27017437 73.2776801,5.27007661 73.4931166,5.26996871 L74.7702683,5.2691997 C88.4385187,5.25955143 96.6610563,5.20709387 99.4378907,5.1121618 C105.437292,4.90705933 111.368156,3.46555598 117.229798,0.784730357 L117.229798,0.784730357 Z" id="矩形备份-5" stroke="#171717" fill="#FFD961"></path>
                    <path d="M114.741216,4.71957893 C110.303725,7.3148288 105.866233,8.36657091 101.428741,7.87480527" id="路径-21" stroke="#343433" stroke-width="0.8" stroke-linecap="round"></path>
                </g>
            </g>
        </g>
    </g>
</svg>