<?xml version="1.0" encoding="UTF-8"?>
<svg width="46px" height="35px" viewBox="0 0 46 35" version="1.1" xmlns="http://www.w3.org/2000/svg" xmlns:xlink="http://www.w3.org/1999/xlink">
    <title>编组 15</title>
    <g id="页面-1" stroke="none" stroke-width="1" fill="none" fill-rule="evenodd">
        <g id="儿童节单个样式备份" transform="translate(-233.000000, -56.000000)">
            <g id="编组-5" transform="translate(107.000000, 39.000000)">
                <g id="编组-15" transform="translate(12.000000, 17.000000)">
                    <path d="M119.5,0.5 C120.01841,0.5 120.531402,0.523190402 121.037996,0.56860085 C121.433592,0.521749775 121.714252,0.5 122,0.5 L122,0.5 L145,0.5 C146.518783,0.5 147.893783,1.11560847 148.889087,2.1109127 C149.884392,3.10621694 150.5,4.48121694 150.5,6 C150.5,7.51878306 149.884392,8.89378306 148.889087,9.8890873 C147.893783,10.8843915 146.518783,11.5 144.999983,11.5 L144.999983,11.5 L136.091711,11.5002976 C135.88049,11.524199 135.650321,11.5154661 135.411664,11.5082168 C133.047255,11.4994215 131.310237,12.2902677 130.050253,13.5502525 C128.783502,14.8170034 128,16.5670034 128,18.5 C128,20.4329966 128.783502,22.1829966 130.050253,23.4497475 C131.317003,24.7164983 133.067003,25.5 135.001286,25.4999983 L135.001286,25.4999983 L141.991009,25.482019 C143.236133,25.482019 144.36338,25.986705 145.179347,26.8026717 C145.995314,27.6186385 146.5,28.7458862 146.5,29.9910095 C146.5,31.2361328 145.995314,32.3633805 145.179347,33.1793473 C144.36338,33.995314 143.236133,34.5 141.991014,34.5 L141.991014,34.5 L119.582327,34.4998104 L17.5,34.5 C12.8055796,34.5 8.55557963,32.5972102 5.47918472,29.5208153 C2.40278981,26.4444204 0.5,22.1944204 0.5,17.5 C0.5,12.8055796 2.40278981,8.55557963 5.47918472,5.47918472 C8.55557963,2.40278981 12.8055796,0.5 17.5,0.5 L17.5,0.5 Z" id="形状结合" stroke="#333333" fill="#FFEB91"></path>
                    <circle id="椭圆形" stroke="#000000" fill="#FCE073" cx="155.5" cy="30.5" r="4"></circle>
                    <line x1="114.80734" y1="3.88939278" x2="132.799394" y2="3.88939278" id="路径-4备份" stroke="#FCFFFD" stroke-width="1.5" stroke-linecap="round"></line>
                    <line x1="136.80734" y1="3.88939278" x2="141.5" y2="3.88939278" id="路径-4备份-2" stroke="#FCFFFD" stroke-width="1.5" stroke-linecap="round"></line>
                </g>
            </g>
        </g>
    </g>
</svg>