<?xml version="1.0" encoding="UTF-8"?>
<svg width="8px" height="8px" viewBox="0 0 8 8" version="1.1" xmlns="http://www.w3.org/2000/svg" xmlns:xlink="http://www.w3.org/1999/xlink">
    <title>编组备份 25</title>
    <g id="页面-1" stroke="none" stroke-width="1" fill="none" fill-rule="evenodd">
        <g id="端午单个样式" transform="translate(-234.000000, -62.000000)">
            <g id="编组-6" transform="translate(131.000000, 36.809174)">
                <g id="编组" transform="translate(1.000000, 1.000000)">
                    <path d="M5.87011816,7.46069873e-14 L103.796144,7.46069873e-14 C103.642648,2.03736885 104.031801,3.57166674 104.963603,4.60289368 C105.895404,5.63412061 107.424529,6.10583308 109.550976,6.01803107 L109.550976,25.0702035 C107.628047,25.0702035 106.098923,25.5462238 104.963603,26.4982645 C103.828283,27.4503051 103.244888,29.0144924 103.213417,31.1908263 L5.87011816,31.1908263 C5.87011816,28.9797211 5.36168883,27.4155338 4.34483017,26.4982645 C3.32797152,25.5809951 1.87969479,25.1049748 -1.77635684e-13,25.0702035 L-1.77635684e-13,6.01803107 C1.87969479,6.06084956 3.32797152,5.58913709 4.34483017,4.60289368 C5.36168883,3.61665026 5.87011816,2.08235237 5.87011816,7.46069873e-14 Z" id="矩形备份-17" stroke="#497550" stroke-linejoin="round"></path>
                    <circle id="椭圆形备份-8" fill="#497550" cx="108" cy="29.1908263" r="2"></circle>
                </g>
            </g>
        </g>
    </g>
</svg>