<?xml version="1.0" encoding="UTF-8"?>
<svg width="35px" height="65px" viewBox="0 0 35 65" version="1.1" xmlns="http://www.w3.org/2000/svg" xmlns:xlink="http://www.w3.org/1999/xlink">
    <title>编组 4</title>
    <defs>
        <path d="M20.5291447,0 C16.5043261,0 13.6146069,1.86157502 11.8599869,5.58472507 C11.4263116,6.71364322 11.3309201,8.02449161 11.5738125,9.51727023 C6.51659284,9.32869859 4.22496574,11.5548468 4.6989312,16.1957148 C4.78233,16.6444855 4.93604673,17.160197 5.1600814,17.7428493 C3.02079599,18.4542955 1.722869,20.3128384 1.26630043,23.3184778 C0.929850023,24.3774135 0.897977871,24.201694 0.406549127,24.9612037 C-0.0848796161,25.7207134 -0.739634287,30.6293103 2.53805741,30.6293103 C5.81574911,30.6293103 6.35791526,28.6364639 8.46571365,30.3807348 C8.94089575,30.9358255 9.57421951,31.6907985 9.291533,32.824069 C9.0088465,33.9573394 8.58486407,34.814114 9.291533,35.3107189 C9.99820194,35.8073238 10.8075541,35.2535688 10.5220285,33.5638719 C10.2365028,31.874175 11.1743746,31.1780695 12.2706721,31.7523375 C13.3669695,32.3266054 15.6442662,32.432128 16.696178,31.3200384 C17.0986774,31.0094814 17.4646462,30.6922459 18.0062648,31.6086512 C18.5478835,32.5250566 25.1638428,33.7726131 26.0497112,28.7855091 C26.9355796,23.798405 25.6682754,21.1657996 21.9850042,18.7966638 C23.1421711,18.240241 24.9681084,18.216201 24.9681084,14.4920025 C24.9681084,10.7678041 22.2406083,8.87601275 19.6533126,7.95920268 C17.0660169,7.04239261 17.1636229,4.78568218 18.0062648,3.31627824 C18.5680261,2.33667561 19.408986,1.23124953 20.5291447,0 Z" id="path-1"></path>
        <filter x="-9.5%" y="-7.0%" width="119.0%" height="114.2%" filterUnits="objectBoundingBox" id="filter-2">
            <feOffset dx="-4" dy="1" in="SourceAlpha" result="shadowOffsetInner1"></feOffset>
            <feComposite in="shadowOffsetInner1" in2="SourceAlpha" operator="arithmetic" k2="-1" k3="1" result="shadowInnerInner1"></feComposite>
            <feColorMatrix values="0 0 0 0 0.996078431   0 0 0 0 0.760784314   0 0 0 0 0.760784314  0 0 0 1 0" type="matrix" in="shadowInnerInner1" result="shadowMatrixInner1"></feColorMatrix>
            <feOffset dx="0" dy="-2" in="SourceAlpha" result="shadowOffsetInner2"></feOffset>
            <feComposite in="shadowOffsetInner2" in2="SourceAlpha" operator="arithmetic" k2="-1" k3="1" result="shadowInnerInner2"></feComposite>
            <feColorMatrix values="0 0 0 0 0.996078431   0 0 0 0 0.760784314   0 0 0 0 0.760784314  0 0 0 1 0" type="matrix" in="shadowInnerInner2" result="shadowMatrixInner2"></feColorMatrix>
            <feMerge>
                <feMergeNode in="shadowMatrixInner1"></feMergeNode>
                <feMergeNode in="shadowMatrixInner2"></feMergeNode>
            </feMerge>
        </filter>
    </defs>
    <g id="页面-1" stroke="none" stroke-width="1" fill="none" fill-rule="evenodd">
        <g id="儿童节单个样式备份" transform="translate(-240.000000, -300.000000)">
            <g id="编组-9" transform="translate(129.000000, 300.442393)">
                <g id="编组-37" transform="translate(129.128649, 32.000000) rotate(5.000000) translate(-129.128649, -32.000000) translate(115.628649, 2.000000)">
                    <g id="编组-4" transform="translate(0.000000, -0.000000)">
                        <path d="M1.77170133,32.7666378 L20.6838738,33.3645991 L17.4413374,55.8906245 C17.3969932,56.1986854 17.259821,56.4770469 17.0578166,56.6954417 C16.8558121,56.9138365 16.5889754,57.0722646 16.2853021,57.1404589 L16.2853021,57.1404589 L14.179498,57.6133481 C11.9839953,58.1063803 9.70460211,58.0887282 7.5169986,57.5617522 L7.5169986,57.5617522 L5.20573514,57.0049875 C4.89572313,56.9303081 4.62626995,56.7616969 4.4263879,56.5324311 C4.22650585,56.3031653 4.09619493,56.0132449 4.06446744,55.6959472 L4.06446744,55.6959472 L1.77170133,32.7666378 Z" id="矩形" stroke="#000000" fill="#FFE577" transform="translate(11.237928, 45.562493) rotate(4.000000) translate(-11.237928, -45.562493) "></path>
                        <path d="M0.776201963,28.5999379 C0.848972385,29.2221259 0.885357595,29.7080009 0.885357595,30.057563 C0.885357595,30.4071251 0.848972385,30.9274579 0.776201963,31.6185613 C6.67962143,36.7732825 14.2523319,38.0883765 23.4943334,35.5638432 C23.6893494,33.9926306 24.0678849,32.939195 24.62994,32.4035365 L2.66256798,26.3558575 L0.776201963,27.5607736 L0.776201963,28.5999379 Z" id="路径-5" stroke="#010101" fill="#FFE577" transform="translate(12.703071, 31.582300) rotate(-4.000000) translate(-12.703071, -31.582300) "></path>
                        <g id="路径-4">
                            <use fill="#FFFFFF" fill-rule="evenodd" xlink:href="#path-1"></use>
                            <use fill="black" fill-opacity="1" filter="url(#filter-2)" xlink:href="#path-1"></use>
                            <use stroke="#000000" stroke-width="1" xlink:href="#path-1"></use>
                        </g>
                        <path d="M21.5953866,20.2667877 C24.0714697,21.9771795 25.0148536,24.1123315 24.4255384,26.6722436 C24.2122629,27.2763682 23.860867,28.0038477 23.3713507,28.8546821 C24.1133304,27.1334625 24.3276204,25.5184735 24.0142208,24.0097151 C23.7008212,22.5009566 22.8945431,21.2533142 21.5953866,20.2667877 Z" id="路径-7" fill="#000000" transform="translate(23.095433, 24.560735) rotate(-4.000000) translate(-23.095433, -24.560735) "></path>
                        <path d="M3.5953866,18.2667877 C6.07146967,19.9771795 7.01485361,22.1123315 6.42553842,24.6722436 C6.21226293,25.2763682 5.86086702,26.0038477 5.37135068,26.8546821 C6.11333036,25.1334625 6.3276204,23.5184735 6.01422078,22.0097151 C5.70082116,20.5009566 4.8945431,19.2533142 3.5953866,18.2667877 Z" id="路径-7备份" fill="#000000" transform="translate(5.095433, 22.560735) scale(-1, 1) rotate(-12.000000) translate(-5.095433, -22.560735) "></path>
                        <path d="M8.7908188,9.03225065 C10.4414895,10.2272293 11.0703925,11.7189701 10.6775279,13.5074728 C10.5353487,13.9295492 10.3010921,14.4378085 9.97475799,15.0322507 C10.4693957,13.829707 10.6122513,12.7013822 10.4033247,11.6472763 C10.1943981,10.5931703 9.65689617,9.72149513 8.7908188,9.03225065 Z" id="路径-7备份-2" fill="#000000" transform="translate(9.790819, 12.032251) scale(-1, 1) rotate(-63.000000) translate(-9.790819, -12.032251) "></path>
                        <g id="编组-3" opacity="0.699999988" transform="translate(2.160408, 35.500000)" stroke="#55453C" stroke-dasharray="1" stroke-opacity="0.518138112" stroke-width="0.5">
                            <line x1="11" y1="1" x2="17.2653253" y2="6.91811883" id="路径-17"></line>
                            <line x1="0.265325343" y1="1" x2="16.8197083" y2="14.5576067" id="路径-17备份-5" transform="translate(8.765325, 8.000000) scale(-1, 1) translate(-8.765325, -8.000000) "></line>
                            <line x1="0.819708331" y1="1.55760671" x2="7.81970833" y2="7.55760671" id="路径-17备份-6" transform="translate(4.265325, 4.500000) scale(-1, 1) translate(-4.265325, -4.500000) "></line>
                            <line x1="1.81970833" y1="8.55760671" x2="16.8197083" y2="20.5576067" id="路径-17备份-7" transform="translate(9.265325, 14.500000) scale(-1, 1) translate(-9.265325, -14.500000) "></line>
                            <line x1="7.81970833" y1="16.5576067" x2="15.8197083" y2="22.5576067" id="路径-17备份-8" transform="translate(11.765325, 19.500000) scale(-1, 1) translate(-11.765325, -19.500000) "></line>
                            <line x1="5" y1="0" x2="16.7109424" y2="11.5576067" id="路径-17备份"></line>
                            <line x1="1" y1="2" x2="15.7109424" y2="16.5576067" id="路径-17备份-2"></line>
                            <line x1="0.710942355" y1="7.55760671" x2="14.7109424" y2="21.5576067" id="路径-17备份-3"></line>
                            <line x1="0.710942355" y1="13.5576067" x2="9.71094235" y2="22.5576067" id="路径-17备份-4"></line>
                        </g>
                    </g>
                </g>
            </g>
        </g>
    </g>
</svg>